HIERARCHY
ROOT Cow_ROOTSHJnt
{
	OFFSET 0.000000 66.749710 104.418190
	CHANNELS 6 Xposition Yposition Zposition Xrotation Yrotation Zrotation
	JOINT Cow_Spine_01SHJnt
	{
		OFFSET 0.000000 -20.599148 -0.645164
		CHANNELS 3 Xrotation Yrotation Zrotation
		JOINT Cow_Spine_02SHJnt
		{
			OFFSET -0.000000 -20.593330 -0.659470
			CHANNELS 3 Xrotation Yrotation Zrotation
			JOINT Cow_Spine_03SHJnt
			{
				OFFSET -0.000000 -20.606550 -0.983307
				CHANNELS 3 Xrotation Yrotation Zrotation
				JOINT Cow_Spine_04SHJnt
				{
					OFFSET -0.000000 -20.599676 1.374176
					CHANNELS 3 Xrotation Yrotation Zrotation
					JOINT Cow_Spine_TopSHJnt
					{
						OFFSET -0.000000 -20.599678 0.913795
						CHANNELS 3 Xrotation Yrotation Zrotation
						JOINT Cow_l_Clavicle_01_01SHJnt
						{
							OFFSET 11.171912 0.000000 0.000000
							CHANNELS 3 Xrotation Yrotation Zrotation
							JOINT Cow_l_FrontLeg_HipSHJnt
							{
								OFFSET 7.976342 -4.953094 -13.093445
								CHANNELS 3 Xrotation Yrotation Zrotation
								JOINT Cow_l_FrontLeg_Knee1SHJnt
								{
									OFFSET 0.000006 -3.929440 -54.085663
									CHANNELS 3 Xrotation Yrotation Zrotation
									JOINT Cow_l_FrontLeg_Knee2SHJnt
									{
										OFFSET 0.000000 1.964958 -22.377888
										CHANNELS 3 Xrotation Yrotation Zrotation
										JOINT Cow_l_FrontLeg_AnkleSHJnt
										{
											OFFSET 0.000000 -0.663105 -5.827117
											CHANNELS 3 Xrotation Yrotation Zrotation
											JOINT Cow_l_FrontLeg_BallSHJnt
											{
												OFFSET 0.000006 -5.970051 -9.033520
												CHANNELS 3 Xrotation Yrotation Zrotation
												JOINT Cow_l_FrontLeg_ToeSHJnt
												{
													OFFSET 0.000006 -7.439106 -0.000235
													CHANNELS 3 Xrotation Yrotation Zrotation
													End Site
													{
														OFFSET 7.439106 0.000004 0.000000
													}
												}
											}
										}
									}
								}
							}
						}
						JOINT Cow_r_Clavicle_01_01SHJnt
						{
							OFFSET -11.171912 0.000000 0.000000
							CHANNELS 3 Xrotation Yrotation Zrotation
							JOINT Cow_r_FrontLeg_HipSHJnt
							{
								OFFSET -7.976342 -4.953094 -13.093445
								CHANNELS 3 Xrotation Yrotation Zrotation
								JOINT Cow_r_FrontLeg_Knee1SHJnt
								{
									OFFSET 0.000006 -3.929440 -54.085663
									CHANNELS 3 Xrotation Yrotation Zrotation
									JOINT Cow_r_FrontLeg_Knee2SHJnt
									{
										OFFSET 0.000000 1.964958 -22.377888
										CHANNELS 3 Xrotation Yrotation Zrotation
										JOINT Cow_r_FrontLeg_AnkleSHJnt
										{
											OFFSET 0.000000 -0.663105 -5.827118
											CHANNELS 3 Xrotation Yrotation Zrotation
											JOINT Cow_r_FrontLeg_BallSHJnt
											{
												OFFSET 0.000006 -5.970051 -9.033520
												CHANNELS 3 Xrotation Yrotation Zrotation
												JOINT Cow_r_FrontLeg_ToeSHJnt
												{
													OFFSET 0.000006 -7.439106 -0.000235
													CHANNELS 3 Xrotation Yrotation Zrotation
													End Site
													{
														OFFSET 7.439106 0.000004 0.000000
													}
												}
											}
										}
									}
								}
							}
						}
						JOINT Cow_Neck_01SHJnt
						{
							OFFSET 0.000000 -25.141075 -3.042923
							CHANNELS 3 Xrotation Yrotation Zrotation
							JOINT Cow_Neck_02SHJnt
							{
								OFFSET -0.000000 -19.440186 5.198975
								CHANNELS 3 Xrotation Yrotation Zrotation
								JOINT Cow_Neck_TopSHJnt
								{
									OFFSET -0.000000 -15.102203 2.823219
									CHANNELS 3 Xrotation Yrotation Zrotation
									JOINT Cow_Head_JawSHJnt
									{
										OFFSET 0.000000 -35.995033 -11.047020
										CHANNELS 3 Xrotation Yrotation Zrotation
										JOINT Cow_Head_JawEndSHJnt
										{
											OFFSET 0.000001 -14.239838 -8.004066
											CHANNELS 3 Xrotation Yrotation Zrotation
											End Site
											{
												OFFSET 0.000001 -14.351303 -7.802444
											}
										}
									}
									JOINT Cow_Head_TopSHJnt
									{
										OFFSET -0.000001 -27.576538 24.239853
										CHANNELS 3 Xrotation Yrotation Zrotation
										JOINT Cow_l_Ear_01_01SHJnt
										{
											OFFSET 14.495198 16.691696 -8.068298
											CHANNELS 3 Xrotation Yrotation Zrotation
											JOINT Cow_l_Ear_01_02SHJnt
											{
												OFFSET 6.722663 2.771584 1.751846
												CHANNELS 3 Xrotation Yrotation Zrotation
												JOINT Cow_l_Ear_01_03SHJnt
												{
													OFFSET 10.716763 -0.206581 1.540665
													CHANNELS 3 Xrotation Yrotation Zrotation
													End Site
													{
														OFFSET 0.679575 -10.457191 -2.729607
													}
												}
											}
										}
										JOINT Cow_r_Ear_01_01SHJnt
										{
											OFFSET -14.495194 16.691696 -8.068306
											CHANNELS 3 Xrotation Yrotation Zrotation
											JOINT Cow_r_Ear_01_02SHJnt
											{
												OFFSET -6.722663 2.771584 1.751839
												CHANNELS 3 Xrotation Yrotation Zrotation
												JOINT Cow_r_Ear_01_03SHJnt
												{
													OFFSET -10.716763 -0.206581 1.540665
													CHANNELS 3 Xrotation Yrotation Zrotation
													End Site
													{
														OFFSET -0.679575 -10.457191 -2.729607
													}
												}
											}
										}
									}
								}
							}
							JOINT Cow_NeckSkin_01_01SHJnt
							{
								OFFSET 0.000001 -3.570503 -28.699036
								CHANNELS 3 Xrotation Yrotation Zrotation
								JOINT Cow_NeckSkin_01_02SHJnt
								{
									OFFSET 0.000001 -3.287460 -13.726460
									CHANNELS 3 Xrotation Yrotation Zrotation
									End Site
									{
										OFFSET 0.000000 -13.726448 3.287464
									}
								}
							}
						}
					}
				}
			}
		}
	}
	JOINT Cow_l_HindLeg_HipSHJnt
	{
		OFFSET 22.626928 3.434624 -17.868790
		CHANNELS 3 Xrotation Yrotation Zrotation
		JOINT Cow_l_HindLeg_Knee1SHJnt
		{
			OFFSET -4.433996 11.629982 -42.020042
			CHANNELS 3 Xrotation Yrotation Zrotation
			JOINT Cow_l_HindLeg_Knee2SHJnt
			{
				OFFSET 0.572979 -5.223473 -32.422234
				CHANNELS 3 Xrotation Yrotation Zrotation
				JOINT Cow_l_HindLeg_AnkleSHJnt
				{
					OFFSET 0.961411 -2.095169 -7.270233
					CHANNELS 3 Xrotation Yrotation Zrotation
					JOINT Cow_l_HindLeg_BallSHJnt
					{
						OFFSET 0.000000 -3.795708 -4.836911
						CHANNELS 3 Xrotation Yrotation Zrotation
						JOINT Cow_l_HindLeg_ToeSHJnt
						{
							OFFSET 0.000000 -6.175804 0.000002
							CHANNELS 3 Xrotation Yrotation Zrotation
							End Site
							{
								OFFSET 6.175808 0.000000 0.000000
							}
						}
					}
				}
			}
		}
	}
	JOINT Cow_r_HindLeg_HipSHJnt
	{
		OFFSET -22.626928 3.434624 -17.868790
		CHANNELS 3 Xrotation Yrotation Zrotation
		JOINT Cow_r_HindLeg_Knee1SHJnt
		{
			OFFSET 4.434002 11.629982 -42.020042
			CHANNELS 3 Xrotation Yrotation Zrotation
			JOINT Cow_r_HindLeg_Knee2SHJnt
			{
				OFFSET -0.572975 -5.223473 -32.422234
				CHANNELS 3 Xrotation Yrotation Zrotation
				JOINT Cow_r_HindLeg_AnkleSHJnt
				{
					OFFSET -0.961411 -2.095169 -7.270234
					CHANNELS 3 Xrotation Yrotation Zrotation
					JOINT Cow_r_HindLeg_BallSHJnt
					{
						OFFSET 0.000000 -3.795708 -4.836910
						CHANNELS 3 Xrotation Yrotation Zrotation
						JOINT Cow_r_HindLeg_ToeSHJnt
						{
							OFFSET 0.000000 -6.175804 0.000002
							CHANNELS 3 Xrotation Yrotation Zrotation
							End Site
							{
								OFFSET 6.175806 0.000000 0.000001
							}
						}
					}
				}
			}
		}
	}
	JOINT Cow_Tail_01_01SHJnt
	{
		OFFSET 0.000000 20.837936 23.982246
		CHANNELS 3 Xrotation Yrotation Zrotation
		JOINT Cow_Tail_01_02SHJnt
		{
			OFFSET -0.000000 7.960037 -11.072281
			CHANNELS 3 Xrotation Yrotation Zrotation
			JOINT Cow_Tail_01_03SHJnt
			{
				OFFSET -0.000000 2.666931 -14.319489
				CHANNELS 3 Xrotation Yrotation Zrotation
				JOINT Cow_Tail_01_04SHJnt
				{
					OFFSET -0.000000 -1.425102 -14.386597
					CHANNELS 3 Xrotation Yrotation Zrotation
					JOINT Cow_Tail_01_05SHJnt
					{
						OFFSET -0.000000 -1.119919 -14.413574
						CHANNELS 3 Xrotation Yrotation Zrotation
						JOINT Cow_Tail_01_06SHJnt
						{
							OFFSET -0.000000 0.772911 -13.741093
							CHANNELS 3 Xrotation Yrotation Zrotation
							JOINT Cow_Tail_01_07SHJnt
							{
								OFFSET -0.000000 3.111671 -14.118168
								CHANNELS 3 Xrotation Yrotation Zrotation
								End Site
								{
									OFFSET -0.000000 14.118164 3.111679
								}
							}
						}
					}
				}
			}
		}
	}
	JOINT Cow_Udder_01_01SHJnt
	{
		OFFSET 0.000000 -7.188259 -41.393276
		CHANNELS 3 Xrotation Yrotation Zrotation
		JOINT Cow_Udder_01_02SHJnt
		{
			OFFSET 0.000001 3.137054 -13.240067
			CHANNELS 3 Xrotation Yrotation Zrotation
			End Site
			{
				OFFSET 0.000001 13.240070 3.137051
			}
		}
	}
}
MOTION
Frames: 4
Frame Time: 0.040000
0.000000 67.974800 99.343048 -3.141854 0.000000 -0.000000 -2.310100 -0.000228 -0.000007 1.838291 -0.000002 -0.000000 0.514982 0.000010 -0.000007 2.017747 0.000000 0.000008 3.176515 -0.000000 -0.000001 -19.298134 0.000000 0.000006 3.907475 4.682556 5.297161 -9.173518 -0.000004 0.000003 6.878879 -0.310512 -5.384392 16.049394 -3.881749 0.965501 2.362426 -0.136586 0.089337 0.000000 -0.000000 0.000003 -7.641400 -0.284944 -0.145113 -29.101626 -6.555118 -18.607920 29.692707 0.000016 -0.000012 76.901660 24.049053 -13.389321 -9.256190 -7.748015 0.252372 -0.000000 -0.000110 -0.000000 -0.000001 -0.000000 0.000003 1.899750 -0.042103 -0.336218 4.964050 -0.083240 -0.388184 3.366122 -0.005638 -0.020373 -21.767765 0.000002 0.000007 0.000000 -0.000000 -0.000000 -0.000002 0.000009 0.000011 0.000004 0.000003 -0.000005 0.000001 -0.000001 -0.000000 0.000002 -0.000000 -0.000001 -0.000006 0.000002 0.000003 -0.000000 0.000002 0.000003 -0.000001 -0.000001 0.000001 0.203210 9.798142 -2.370458 0.000000 0.000001 -0.000000 -13.431335 6.364697 -16.317872 -10.222407 -2.885467 0.025318 -2.539544 -2.646508 10.593041 30.637206 -1.829942 5.606079 0.000000 0.000007 -0.000000 0.000000 0.000000 0.000000 11.996680 -8.890035 15.292239 -44.254097 11.571467 3.441219 60.536984 -11.217875 -5.347882 22.112394 5.118655 -5.721757 -0.000003 -0.000003 0.000001 -0.000001 -0.000000 -0.000000 7.551499 -0.000007 -0.000013 23.280666 0.000001 -0.000000 1.049186 0.000000 -0.000000 -9.257933 -0.000000 -0.000000 -9.257944 -0.000000 0.000000 -14.258996 -0.000000 0.000000 0.000000 0.000007 0.000001 0.000007 0.000000 0.000000 -0.000001 0.000000 0.000000 
0.000000 68.290260 98.544327 -1.092937 0.000000 -0.000000 -3.884884 -0.003479 -0.000231 1.299409 0.000879 -0.012606 0.566571 0.000010 -0.000000 1.231710 0.000000 0.000005 3.222951 -0.000000 -0.000004 -18.456404 0.000000 0.000005 9.956216 4.382912 4.039194 -9.173461 -0.000009 0.000003 5.426860 -0.018249 -4.398776 14.705853 -3.188415 0.568949 12.895288 -0.660116 0.386396 0.000001 -0.000000 0.000003 -13.090915 -0.148851 -0.093776 -25.592582 -7.124113 -22.529089 13.513527 0.000010 -0.000000 76.849751 26.391330 -8.561208 -21.827000 -4.687202 -0.291243 0.055501 0.003993 -0.002327 0.000004 -0.000000 0.000003 2.206719 -0.144193 -0.421632 5.821970 -0.218482 -0.474686 4.012546 -0.013370 -0.024405 -21.767765 0.000002 0.000007 0.000003 0.000000 -0.000000 0.000003 0.000009 0.000011 0.000004 0.000005 -0.000005 -0.000000 -0.000003 0.000001 -0.000001 0.000000 -0.000001 -0.000006 0.000002 0.000003 0.000001 0.000000 0.000001 0.000003 0.000001 0.000001 -0.398747 7.548679 2.135969 0.000003 -0.000000 0.000000 -11.215093 6.283803 -17.023886 -14.565402 -4.101820 -0.119567 -4.558072 -4.516067 10.234566 32.976246 -0.391207 5.145330 0.000000 0.000007 -0.000000 0.000000 0.000000 0.000000 -5.106013 -10.225132 12.653048 -32.137136 8.767230 1.620816 38.984783 -9.619124 -5.698759 26.369943 7.754553 -8.053424 0.000002 -0.000003 0.000001 0.000001 0.000000 0.000000 7.677201 -0.000002 -0.000004 23.467611 0.000001 -0.000000 1.189670 0.000000 -0.000000 -9.117457 -0.000000 0.000000 -14.365358 -0.000000 0.000000 -19.872507 -0.000001 0.000000 0.000000 0.000007 0.000001 0.000008 0.000000 0.000000 0.000001 0.000000 0.000000 
0.000000 68.668350 97.083664 0.743067 0.000000 -0.000000 -4.794170 0.000003 0.000008 0.177329 0.000041 -0.000518 -0.173715 0.000010 0.000000 -0.667505 0.000000 -0.000000 5.330771 -0.000000 -0.000000 -16.272738 0.000001 0.000002 14.259243 4.027227 3.010696 -9.173255 -0.000010 0.000002 3.066218 0.213693 -3.615492 12.193932 -3.027054 0.461051 12.668614 -0.659253 0.378489 -0.000003 -0.000000 0.000003 -17.765313 -0.033613 -0.025258 -16.271317 -7.598322 -19.976189 -0.999803 0.000002 -0.000003 15.888278 6.645656 15.263760 29.607330 4.112420 -1.607559 3.679179 0.227939 -0.125252 -0.000000 -0.000000 0.000003 2.542639 -0.227871 -0.488487 6.700798 -0.332711 -0.538220 4.641979 -0.019965 -0.027165 -21.767762 0.000002 0.000007 0.000000 -0.000000 0.000000 -0.000000 0.000008 0.000011 -0.000000 0.000006 -0.000006 0.000002 -0.000001 -0.000000 -0.000002 0.000001 -0.000000 -0.000012 0.000002 0.000003 0.000001 0.000001 0.000001 0.000004 0.000001 0.000001 -1.449255 3.159830 11.124663 0.000002 -0.000000 -0.000001 -1.826226 5.872064 -18.762847 -23.288469 -6.484535 -0.685763 -2.654514 -5.918641 11.381657 29.546142 0.705161 3.924555 0.000000 0.000007 -0.000000 0.000000 0.000000 -0.000000 -18.313108 -10.015357 10.161297 -12.660578 3.569998 0.044667 6.411228 -2.984640 -4.713143 30.793618 7.180752 -8.824248 0.000000 -0.000003 0.000001 -0.000000 -0.000000 -0.000000 7.997521 -0.000000 -0.000000 23.944007 0.000001 -0.000001 1.547668 0.000000 0.000000 -8.759464 -0.000000 0.000000 -16.417251 -0.000001 0.000000 -23.528152 -0.000001 0.000000 0.000000 0.000007 0.000001 0.000008 0.000000 0.000000 0.000000 0.000000 -0.000000 
0.000000 69.074066 95.339767 2.290636 0.000000 -0.000000 -5.816036 -0.000016 0.000033 -0.825160 0.000014 -0.000157 -0.941076 0.000010 0.000000 -2.551472 -0.000000 -0.000003 7.842211 -0.000000 0.000002 -12.861810 0.000000 0.000006 16.980354 3.633944 2.183283 -9.173264 -0.000007 -0.000000 0.661893 0.347903 -2.963204 9.291086 -2.885597 0.383781 10.837865 -0.578354 0.334052 0.000001 0.000000 0.000003 -19.068193 -0.004133 -0.003264 -6.703178 -7.710664 -14.009404 -9.173530 -0.000007 -0.000002 8.829234 1.504643 13.118365 28.233999 5.342623 -1.821418 8.772165 0.559572 -0.350919 0.000001 0.000000 0.000003 2.887198 -0.291142 -0.536221 7.558035 -0.422136 -0.579595 5.231199 -0.025178 -0.028744 -21.767765 0.000002 0.000007 0.000002 0.000000 0.000000 -0.000000 0.000009 0.000011 0.000001 0.000005 -0.000006 0.000000 0.000000 0.000001 0.000001 0.000001 -0.000001 -0.000010 0.000000 0.000005 0.000000 0.000000 0.000002 -0.000001 -0.000000 -0.000000 -2.788060 0.052763 17.466423 0.000002 -0.000000 0.000002 9.513677 4.702306 -20.762831 -28.067062 -7.737873 -1.147064 -1.553699 -7.544857 13.920619 21.096088 1.365933 2.419825 -0.000000 0.000007 -0.000000 -0.000000 -0.000000 0.000000 -17.656159 -10.056744 10.707056 -13.754023 3.875650 0.085502 -2.910229 1.393425 -3.553932 33.191861 4.034157 -7.479802 0.000000 -0.000003 0.000001 0.000000 0.000000 0.000000 8.459567 -0.000000 -0.000000 24.631196 0.000001 -0.000001 2.064063 0.000000 0.000000 -8.243066 -0.000000 0.000000 -16.024293 -0.000001 0.000000 -25.936329 -0.000001 0.000000 0.000000 0.000007 0.000001 0.000007 0.000000 0.000000 0.000001 0.000000 0.000000 
